<svg width="28" height="28" viewBox="0 0 28 28" fill="none" xmlns="http://www.w3.org/2000/svg">
<circle opacity="0.2" cx="14" cy="14" r="14" fill="white"/>
<path d="M18.4444 16.4444C17.7778 16.4444 17.1111 16.3333 16.4444 16.1111C16.2778 16.0556 16.0555 16.1111 15.8889 16.2222L14.6667 17.4444C13.1111 16.6667 11.8333 15.3333 11 13.7778L12.2222 12.5556C12.3889 12.3889 12.4444 12.1667 12.3333 12C12.1667 11.3889 12.0556 10.7222 12.0556 10.0556C12.0556 9.72222 11.8333 9.5 11.5 9.5H9.55556C9.22222 9.5 9 9.72222 9 10.0556C9 15.2778 13.2222 19.5 18.4444 19.5C18.7778 19.5 19 19.2778 19 18.9444V17C19 16.6667 18.7778 16.4444 18.4444 16.4444ZM17.8889 14.5H19C19 11.7222 16.7778 9.5 14 9.5V10.6111C16.1667 10.6111 17.8889 12.3333 17.8889 14.5ZM15.6667 14.5H16.7778C16.7778 12.9444 15.5556 11.7222 14 11.7222V12.8333C14.9444 12.8333 15.6667 13.5556 15.6667 14.5Z" fill="white"/>
</svg>
